# xmcd
#
# Track frame offsets:
#	150
#	21309
#	40689
#	58512
#	69981
#	83613
#	99321
#	118370
#	135622
#	151700
#	172357
#	192313
#	209767
#	227897
#	245221
#	260761
#	273915
#	289983
#	300020
#	312945
#
# Disc length: 4369 seconds
#
# Revision: 2
# Processed by: cddbd v1.5.2PL0 Copyright (c) Steve Scherf et al.
# Submitted via: EasyCDDAExtractor 11.5.0.1
#
DISCID=24110f14
DTITLE=Various Artist - NCT 031
DYEAR=2002
DGENRE=Country
TTITLE0=Garth Brooks - Wrapped Up In You
TTITLE1=David Ball - Riding With Private Malone
TTITLE2=Randy Travis - America Will Always Stand
TTITLE3=Diamond Rio - That's Just That
TTITLE4=Cyndi Thomson - I Always Liked That Best
TTITLE5=Phil Vassar - That's When I Love You
TTITLE6=Mark McGuinn - She Doesn't Dance
TTITLE7=Brooks and Dunn - The Long Goodbye
TTITLE8=Tammy Cochran - I Cry
TTITLE9=Tim Rushlow - The Package
TTITLE10=Jamie O'Neal ft. Mark Wills - I'm Not Gonna Do Anything Without You
TTITLE11=Kristin Garner - Singing To The Scarecrow
TTITLE12=Gary Myrick - Honk If You Love Jesus
TTITLE13=Bernie Nelson - The Ride
TTITLE14=Robin English - Girl In Love
TTITLE15=Emerson Drive - I Should Be Sleeping
TTITLE16=Lynn Marie - Send A Message To My Heart
TTITLE17=J.W. Lance - Revelation Time
TTITLE18=Wylie And The Wild West Show - Saddle Bum
TTITLE19=The Gourds - Omaha
EXTD=
EXTT0=
EXTT1=
EXTT2=
EXTT3=
EXTT4=
EXTT5=
EXTT6=
EXTT7=
EXTT8=
EXTT9=
EXTT10=
EXTT11=
EXTT12=
EXTT13=
EXTT14=
EXTT15=
EXTT16=
EXTT17=
EXTT18=
EXTT19=
PLAYORDER=
